<?xml version="1.0" encoding="UTF-8" standalone="no"?>
<svg width="228px" height="217px" viewBox="0 0 228 217" version="1.1" xmlns="http://www.w3.org/2000/svg" xmlns:xlink="http://www.w3.org/1999/xlink" xmlns:sketch="http://www.bohemiancoding.com/sketch/ns">
    <!-- Generator: Sketch 3.3.2 (12043) - http://www.bohemiancoding.com/sketch -->
    <title>Clock</title>
    <desc>Created with Sketch.</desc>
    <defs>
        <filter x="-50%" y="-50%" width="200%" height="200%" filterUnits="objectBoundingBox" id="filter-1">
            <feOffset dx="0" dy="1" in="SourceAlpha" result="shadowOffsetOuter1"></feOffset>
            <feGaussianBlur stdDeviation="1" in="shadowOffsetOuter1" result="shadowBlurOuter1"></feGaussianBlur>
            <feColorMatrix values="0 0 0 0 0   0 0 0 0 0   0 0 0 0 0  0 0 0 0.141711957 0" in="shadowBlurOuter1" type="matrix" result="shadowMatrixOuter1"></feColorMatrix>
            <feMerge>
                <feMergeNode in="shadowMatrixOuter1"></feMergeNode>
                <feMergeNode in="SourceGraphic"></feMergeNode>
            </feMerge>
        </filter>
        <filter x="-50%" y="-50%" width="200%" height="200%" filterUnits="objectBoundingBox" id="filter-2">
            <feOffset dx="0" dy="1" in="SourceAlpha" result="shadowOffsetOuter1"></feOffset>
            <feGaussianBlur stdDeviation="1" in="shadowOffsetOuter1" result="shadowBlurOuter1"></feGaussianBlur>
            <feColorMatrix values="0 0 0 0 0   0 0 0 0 0   0 0 0 0 0  0 0 0 0.198044044 0" in="shadowBlurOuter1" type="matrix" result="shadowMatrixOuter1"></feColorMatrix>
            <feMerge>
                <feMergeNode in="shadowMatrixOuter1"></feMergeNode>
                <feMergeNode in="SourceGraphic"></feMergeNode>
            </feMerge>
        </filter>
    </defs>
    <g id="Stickersheet" stroke="none" stroke-width="1" fill="none" fill-rule="evenodd" sketch:type="MSPage">
        <g id="Clock" sketch:type="MSLayerGroup" transform="translate(-6.000000, -17.000000)">
            <path d="M125.219721,125.239454 C125.219721,125.239454 53.2407452,143.690302 27.8943085,141.3933 C1.48526605,139 1.48526516,111 27.8943085,109.085608 C55.9523681,107.051679 125.219721,125.239454 125.219721,125.239454 Z" id="minutes" fill-opacity="0.169610507" fill="#4990E2" filter="url(#filter-1)" sketch:type="MSShapeGroup"></path>
            <path d="M125.260546,219.03598 C177.062937,219.03598 219.057072,177.041845 219.057072,125.239454 C219.057072,73.4370632 177.062937,31.442928 125.260546,31.442928 C73.458155,31.442928 31.4640199,73.4370632 31.4640199,125.239454 C31.4640199,177.041845 73.458155,219.03598 125.260546,219.03598 Z" id="Background" fill="#D8D8D8" sketch:type="MSShapeGroup"></path>
            <path d="M32.8441845,109.182601 C31.9368945,114.420285 31.4640199,119.806874 31.4640199,125.303909 C31.4640199,130.80091 31.9368886,136.187466 32.8441675,141.425119 C32.9050549,141.436158 32.9660993,141.447037 33.0272953,141.457755 C54.8006122,145.271161 125.260546,125.303909 125.260546,125.303909 C125.260546,125.303909 57.3706037,104.886546 33.0272953,109.150063 C32.9660861,109.160783 32.9050471,109.17163 32.8441781,109.182602 Z" id="hour" fill-opacity="0.526381341" fill="#4990E2" filter="url(#filter-2)" sketch:type="MSShapeGroup"></path>
            <path d="M125.260546,200.276675 C166.702459,200.276675 200.297767,166.681367 200.297767,125.239454 C200.297767,83.7975414 166.702459,50.2022333 125.260546,50.2022333 C83.8186332,50.2022333 50.2233251,83.7975414 50.2233251,125.239454 C50.2233251,166.681367 83.8186332,200.276675 125.260546,200.276675 Z" id="Forground-center" fill="#4990E2" sketch:type="MSShapeGroup"></path>
            <g id="Hands" transform="translate(14.500000, 15.500000)" font-weight="normal" font-family="Roboto" fill="#000000" sketch:alignment="middle" font-size="11" sketch:type="MSTextLayer">
                <g id="time-hand" transform="translate(103.591811, 0.000000)">
                    <text id="00">
                        <tspan x="0.975863398" y="10">00</tspan>
                    </text>
                    <text id="12">
                        <tspan x="0.975863398" y="29.9534884">12</tspan>
                    </text>
                </g>
                <g id="time-hand-copy" transform="translate(158.653455, 30.157183) rotate(30.000000) translate(-158.653455, -30.157183) translate(151.153455, 12.657183)">
                    <text id="05">
                        <tspan x="2.00324045" y="10.1210048">05</tspan>
                    </text>
                    <text id="1" transform="translate(7.098035, 26.516953) rotate(-30.000000) translate(-7.098035, -26.516953) ">
                        <tspan x="4.00159978" y="30.0169533">1</tspan>
                    </text>
                </g>
                <g id="time-hand-copy-2" transform="translate(193.232588, 63.782157) rotate(60.000000) translate(-193.232588, -63.782157) translate(184.732588, 46.782157)">
                    <text id="10">
                        <tspan x="2.44106262" y="10.169873">10</tspan>
                    </text>
                    <text id="2" transform="translate(8.365985, 26.981801) rotate(-60.000000) translate(-8.365985, -26.981801) ">
                        <tspan x="5.26954897" y="30.4818007">2</tspan>
                    </text>
                </g>
                <g id="time-hand-copy-3" transform="translate(205.500000, 110.070720) rotate(90.000000) translate(-205.500000, -110.070720) translate(198.500000, 94.570720)">
                    <text id="15">
                        <tspan x="0.996955209" y="10">15</tspan>
                    </text>
                    <text id="3" transform="translate(7.189826, 25.877769) rotate(-90.000000) translate(-7.189826, -25.877769) ">
                        <tspan x="4.09339076" y="29.3777685">3</tspan>
                    </text>
                </g>
                <g id="time-hand-copy-4" transform="translate(191.660386, 157.468271) rotate(120.000000) translate(-191.660386, -157.468271) translate(183.660386, 139.968271)">
                    <text id="20" transform="translate(8.696112, 6.744341) scale(-1, -1) translate(-8.696112, -6.744341) ">
                        <tspan x="2.50324045" y="10.2443411">20</tspan>
                    </text>
                    <text id="4" transform="translate(8.098035, 27.219081) rotate(-120.000000) translate(-8.098035, -27.219081) ">
                        <tspan x="5.00159978" y="30.719081">4</tspan>
                    </text>
                </g>
                <g id="time-hand-copy-5" transform="translate(156.289551, 192.665397) rotate(151.000000) translate(-156.289551, -192.665397) translate(148.789551, 175.165397)">
                    <text id="25" transform="translate(6.657579, 7.187663) scale(-1, -1) translate(-6.657579, -7.187663) ">
                        <tspan x="0.464708104" y="10.687663">25</tspan>
                    </text>
                    <text id="5" transform="translate(7.827009, 27.113777) rotate(210.000000) translate(-7.827009, -27.113777) ">
                        <tspan x="4.73057391" y="30.6137771">5</tspan>
                    </text>
                </g>
                <g id="time-hand-copy-6" transform="translate(110.519162, 204.500000) rotate(180.000000) translate(-110.519162, -204.500000) translate(103.519162, 188.000000)">
                    <text id="30" transform="translate(7.255583, 6.500000) scale(-1, -1) translate(-7.255583, -6.500000) ">
                        <tspan x="1.06271203" y="10">30</tspan>
                    </text>
                    <text id="6" transform="translate(7.255583, 25.883721) scale(-1, -1) translate(-7.255583, -25.883721) ">
                        <tspan x="4.15914758" y="29.3837209">6</tspan>
                    </text>
                </g>
                <g id="time-hand-copy-7" transform="translate(62.598716, 190.910386) rotate(210.000000) translate(-62.598716, -190.910386) translate(55.098716, 173.410386)">
                    <text id="35" transform="translate(7.696112, 6.744341) scale(-1, -1) translate(-7.696112, -6.744341) ">
                        <tspan x="1.50324045" y="10.2443411">35</tspan>
                    </text>
                    <text id="7" transform="translate(7.098035, 27.219081) rotate(150.000000) translate(-7.098035, -27.219081) ">
                        <tspan x="4.00159978" y="30.719081">7</tspan>
                    </text>
                </g>
                <g id="time-hand-copy-8" transform="translate(29.061078, 156.985833) rotate(240.000000) translate(-29.061078, -156.985833) translate(20.561078, 139.485833)">
                    <text id="40" transform="translate(7.767908, 6.744341) scale(-1, -1) translate(-7.767908, -6.744341) ">
                        <tspan x="1.57503722" y="10.2443411">40</tspan>
                    </text>
                    <text id="8" transform="translate(8.365985, 27.219081) rotate(120.000000) translate(-8.365985, -27.219081) ">
                        <tspan x="5.26954897" y="30.719081">8</tspan>
                    </text>
                </g>
                <g id="time-hand-copy-9" transform="translate(16.000000, 109.408189) rotate(-90.000000) translate(-16.000000, -109.408189) translate(9.000000, 93.408189)">
                    <text id="45">
                        <tspan x="0.475863398" y="10.5">45</tspan>
                    </text>
                    <text id="9" transform="translate(6.668734, 27.073566) rotate(90.000000) translate(-6.668734, -27.073566) ">
                        <tspan x="3.57229894" y="30.5735659">9</tspan>
                    </text>
                </g>
                <g id="time-hand-copy-10" transform="translate(30.817250, 62.178615) rotate(-60.000000) translate(-30.817250, -62.178615) translate(21.817250, 43.178615)">
                    <text id="50">
                        <tspan x="1.63721504" y="10.0122903">50</tspan>
                    </text>
                    <text id="10" transform="translate(9.098035, 28.219081) rotate(60.000000) translate(-9.098035, -28.219081) ">
                        <tspan x="2.90516424" y="31.719081">10</tspan>
                    </text>
                </g>
                <g id="time-hand-copy-11" transform="translate(65.063229, 29.551952) rotate(-30.000000) translate(-65.063229, -29.551952) translate(55.063229, 9.551952)">
                    <text id="55">
                        <tspan x="2.53913883" y="10.6946061">55</tspan>
                    </text>
                    <text id="11" transform="translate(9.964061, 29.174335) rotate(30.000000) translate(-9.964061, -29.174335) ">
                        <tspan x="3.77118964" y="31.3149961">11</tspan>
                    </text>
                </g>
            </g>
        </g>
    </g>
</svg>