<?xml version="1.0" encoding="UTF-8" standalone="no"?>
<svg width="27px" height="51px" viewBox="0 0 27 51" version="1.1" xmlns="http://www.w3.org/2000/svg" xmlns:xlink="http://www.w3.org/1999/xlink" xmlns:sketch="http://www.bohemiancoding.com/sketch/ns">
    <!-- Generator: Sketch 3.3.2 (12043) - http://www.bohemiancoding.com/sketch -->
    <title>Flower</title>
    <desc>Created with Sketch.</desc>
    <defs>
        <radialGradient cx="50%" cy="50%" fx="50%" fy="50%" r="116.391254%" id="radialGradient-1">
            <stop stop-color="#FBDA61" offset="0%"></stop>
            <stop stop-color="#FB9761" offset="100%"></stop>
        </radialGradient>
        <filter x="-50%" y="-50%" width="200%" height="200%" filterUnits="objectBoundingBox" id="filter-2">
            <feOffset dx="0" dy="1" in="SourceAlpha" result="shadowOffsetOuter1"></feOffset>
            <feGaussianBlur stdDeviation="0.5" in="shadowOffsetOuter1" result="shadowBlurOuter1"></feGaussianBlur>
            <feColorMatrix values="0 0 0 0 0   0 0 0 0 0   0 0 0 0 0  0 0 0 0.084 0" in="shadowBlurOuter1" type="matrix" result="shadowMatrixOuter1"></feColorMatrix>
            <feMerge>
                <feMergeNode in="shadowMatrixOuter1"></feMergeNode>
                <feMergeNode in="SourceGraphic"></feMergeNode>
            </feMerge>
        </filter>
    </defs>
    <g id="Stickersheet" stroke="none" stroke-width="1" fill="none" fill-rule="evenodd" sketch:type="MSPage">
        <g id="Logos" sketch:type="MSLayerGroup" transform="translate(-185.000000, -235.000000)">
            <g id="Wanamu" transform="translate(0.000000, 221.000000)" sketch:type="MSShapeGroup">
                <g id="Flower" transform="translate(196.000000, 34.000000) rotate(321.000000) translate(-196.000000, -34.000000) translate(177.000000, 13.000000)">
                    <path d="M23.552183,16.4999376 C23.552183,16.4999376 20.5680862,23.6466471 17.7629534,26.8533211 C16.3465426,28.4724842 11.0496994,30.1351022 6.15228664,31.3844699 C1.35061082,32.6094144 0.348570117,41.2250522 0.348570117,41.2250522 L2.05362769,41.6828587 C2.05362769,41.6828587 1.89014106,34.0774812 6.76414043,32.8810516 C11.7878688,31.6478678 17.2844952,29.6863029 19.1523685,27.5592336 C22.8324444,23.3684909 24.7100289,16.970546 24.7100289,16.970546 L23.552183,16.4999376 Z" id="Path-550" fill="#417505"></path>
                    <path d="M10.6644642,30.7343052 C11.9877318,30.7343048 11.3263234,26.9475417 12.5292995,24.5440152 C12.5292995,21.1252125 11.6943843,18.3537253 10.6644642,18.3537253 C9.63454415,18.3537253 8.79962896,21.1252125 8.79962896,24.5440152 C8.79962896,27.962818 10.2314494,26.0783352 10.6644642,30.7343052 Z" id="Oval-155" fill="#70B51F"></path>
                    <path d="M12.0057585,30.7343052 C11.4194515,32.2047652 15.6024648,33.2276149 17.5384826,35.6801283 C21.050454,37.267149 24.2673999,37.6258974 24.7237322,36.4814153 C25.1800645,35.3369333 22.7029796,33.1226129 19.1910082,31.5355922 C15.6790367,29.9485716 16.9804706,32.4144426 12.0057585,30.7343052 L12.0057585,30.7343052 Z" id="Oval-155-Copy" fill="#70B51F"></path>
                    <g id="Group" transform="translate(14.780595, 3.666653)" stroke="#4A4A4A" stroke-width="0.5" fill="#FFFFFF">
                        <ellipse id="Oval-138" cx="10.2248843" cy="15.4686915" rx="2.50334272" ry="3.78123571"></ellipse>
                        <path d="M1.61276379,10.3618755 C1.62937032,12.4495095 2.76353474,14.0989464 4.14599092,14.0459959 C5.5284471,13.9930455 6.635687,12.2577589 6.61908047,10.170125 C6.60247393,8.08249099 5.46830951,6.43305409 4.08585334,6.48600454 C2.70339716,6.53895499 1.59615725,8.27424152 1.61276379,10.3618755 L1.61276379,10.3618755 Z" id="Oval-138-Copy" transform="translate(4.115922, 10.266000) rotate(265.000000) translate(-4.115922, -10.266000) "></path>
                        <path d="M10.1614107,0.229444307 C8.77930611,0.254528057 7.68730705,1.96765465 7.72236255,4.05581965 C7.75741805,6.14398465 8.90625332,7.81644246 10.2883579,7.79135871 C11.6704626,7.76627496 12.7624616,6.05314836 12.7274061,3.96498336 C12.6923506,1.87681836 11.5435153,0.204360558 10.1614107,0.229444307 L10.1614107,0.229444307 Z" id="Oval-138-Copy-2"></path>
                        <path d="M17.8639387,8.78677899 C17.8639387,6.69846017 16.743154,5.00554328 15.360596,5.00554328 C13.978038,5.00554328 12.8572533,6.69846017 12.8572533,8.78677899 C12.8572533,10.8750978 13.978038,12.5680147 15.360596,12.5680147 C16.743154,12.5680147 17.8639387,10.8750978 17.8639387,8.78677899 L17.8639387,8.78677899 Z" id="Oval-138-Copy-3" transform="translate(15.360596, 8.786779) rotate(272.000000) translate(-15.360596, -8.786779) "></path>
                    </g>
                    <g id="Group" transform="translate(24.726093, 13.361784) rotate(39.000000) translate(-24.726093, -13.361784) translate(15.392760, 3.877913)" stroke="#4A4A4A" stroke-width="0.5" fill="#FFFFFF">
                        <ellipse id="Oval-138-Copy-7" cx="9.44864071" cy="14.7391165" rx="2.50334272" ry="3.78123571"></ellipse>
                        <path d="M1.36564405,9.60625599 C1.38225058,11.69389 2.516415,13.3433269 3.89887118,13.2903764 C5.28132736,13.237426 6.38856726,11.5021394 6.37196073,9.41450545 C6.35535419,7.32687147 5.22118977,5.67743457 3.8387336,5.73038502 C2.45627742,5.78333547 1.34903752,7.51862201 1.36564405,9.60625599 L1.36564405,9.60625599 Z" id="Oval-138-Copy-4" transform="translate(3.868802, 9.510381) rotate(273.000000) translate(-3.868802, -9.510381) "></path>
                        <path d="M9.63796266,0.178373783 C8.25585805,0.203457533 7.16385898,1.91658413 7.19891449,4.00474913 C7.23396999,6.09291413 8.38280526,7.76537193 9.76490987,7.74028818 C11.1470145,7.71520443 12.2390136,6.00207784 12.203958,3.91391284 C12.1689025,1.82574784 11.0200673,0.153290034 9.63796266,0.178373783 L9.63796266,0.178373783 Z" id="Oval-138-Copy-5"></path>
                        <path d="M17.2958224,9.51038072 C17.2958224,7.4220619 16.1750377,5.72914501 14.7924797,5.72914501 C13.4099217,5.72914501 12.289137,7.4220619 12.289137,9.51038072 C12.289137,11.5986995 13.4099217,13.2916164 14.7924797,13.2916164 C16.1750377,13.2916164 17.2958224,11.5986995 17.2958224,9.51038072 L17.2958224,9.51038072 Z" id="Oval-138-Copy-6" transform="translate(14.792480, 9.510381) rotate(87.000000) translate(-14.792480, -9.510381) "></path>
                    </g>
                    <ellipse id="Oval-137" fill="url(#radialGradient-1)" filter="url(#filter-2)" cx="24.7779026" cy="13.2916164" rx="3.18607256" ry="3.20832121"></ellipse>
                </g>
            </g>
        </g>
    </g>
</svg>